<svg width="142" height="144" viewBox="0 0 142 144" fill="none" xmlns="http://www.w3.org/2000/svg">
    <path opacity="0.25" d="M4.62639 41.2683L4.6239 41.276L4.62167 41.2839C1.87032 50.9484 0.5 62.5962 0.5 76.2178C0.5 94.5383 3.58193 108.592 9.80974 118.314C16.0239 128.016 24.492 134.651 35.2016 138.202C45.8582 141.736 57.7072 143.5 70.7436 143.5C84.4591 143.5 96.4809 141.738 106.801 138.202C117.509 134.65 125.976 128.015 132.19 118.314C138.418 108.592 141.5 94.5383 141.5 76.2178C141.5 62.5962 140.13 50.9484 137.378 41.2839C134.624 31.6105 130.142 23.7977 123.918 17.869C118.042 11.713 110.618 7.3388 101.661 4.74008C93.0513 1.90903 82.7421 0.5 70.7436 0.5C59.082 0.5 48.774 1.9102 39.8268 4.74008C31.2052 7.34067 23.9515 11.7179 18.0775 17.8741C12.2006 23.7989 7.72151 31.6042 4.62639 41.2683Z" stroke="white"/>
    <path d="M84.5206 16.7043L84.5205 16.7044L84.5299 16.7108C86.7342 18.1842 88.3612 20.1815 89.4147 22.7164C90.4746 25.267 91.0666 28.3705 91.1749 32.04C91.1723 38.9472 87.4908 42.8498 83.4113 47.1742C83.1299 47.4725 82.8466 47.7729 82.5625 48.0763C78.1606 52.7777 73.6801 58.1446 73.6801 68.262C73.6801 73.5457 75.113 78.1794 77.848 81.9295C80.5826 85.679 84.5979 88.5167 89.7165 90.2442C90.4792 90.5017 91.2514 90.7559 92.0271 91.0113C94.7106 91.8948 97.4357 92.7921 99.9544 93.8821C103.199 95.2864 106.032 96.9835 107.925 99.3124C111.2 103.34 111.101 109.794 109.029 114.506C106.702 119.799 101.55 121.336 94.6685 121.487C91.2385 121.563 87.4354 121.292 83.4209 121L83.1941 120.983C79.2565 120.697 75.1267 120.396 71.0005 120.396C66.8868 120.396 62.7696 120.693 58.8429 120.976L58.5862 120.994C54.5736 121.283 50.7719 121.551 47.3428 121.473C40.463 121.317 35.31 119.779 32.9783 114.505C30.8968 109.797 30.792 103.322 34.0978 99.3152C36.0601 96.9367 39.0174 95.231 42.3879 93.7794C44.4057 92.9105 46.5175 92.1527 48.6286 91.3952C50.0692 90.8783 51.5093 90.3616 52.919 89.8097C57.835 87.8852 61.7273 85.0461 64.39 81.3594C67.0544 77.6702 68.4669 73.1609 68.4669 67.9341C68.4669 64.5035 67.9169 61.7789 66.7631 59.8123C65.1172 57.0069 62.5689 55.8747 59.8504 55.345C57.9985 54.9841 56.0963 54.9083 54.2408 54.8342C53.8545 54.8188 53.4703 54.8035 53.0889 54.7857C50.8542 54.6814 48.696 54.4928 46.6501 53.7515C44.9014 53.1179 43.6266 52.1945 42.7993 51.0102C41.973 49.8273 41.5634 48.3419 41.618 46.5301C41.7281 42.8795 43.7221 37.9762 47.8468 31.8556L47.8553 31.8429L47.8631 31.8298C49.4792 29.0833 51.5534 26.4836 54.0897 24.0315C57.1031 21.1181 60.4363 18.8006 64.0902 17.0763C67.84 15.358 71.7468 14.5 75.8151 14.5C79.5701 14.5 82.4539 15.2539 84.5206 16.7043Z" stroke="url(#paint0_linear_1253_21706)"/>
    <defs>
    <linearGradient id="paint0_linear_1253_21706" x1="67" y1="65" x2="92.6705" y2="137.117" gradientUnits="userSpaceOnUse">
    <stop stop-color="#4C50D6"/>
    <stop offset="1" stop-color="#17F338"/>
    </linearGradient>
    </defs>
</svg>
