<svg width="1600" height="652" viewBox="0 0 1600 652" fill="none" xmlns="http://www.w3.org/2000/svg">
<path d="M276.685 15.5907L276.404 15.177L276.685 15.5907C286.732 8.76795 300.782 3.20325 312.798 1.28778C315.6 0.841819 322.842 0.641886 328.887 0.854701C348.634 1.54943 362.559 6.75375 384.623 21.7525C398.332 31.0729 409.955 35.3154 421.442 35.0272C432.923 34.7391 444.187 29.9268 457.181 21.3138C464.884 16.2062 473.627 10.9357 476.61 9.58976L476.404 9.13401L476.61 9.58975C498.245 -0.17437 518.484 -2.01379 538.885 3.89825C550.314 7.21023 559.67 12.0305 577.844 24.0055C586.66 29.8148 592.624 33.3106 597.832 35.2439C603.067 37.1867 607.52 37.5453 613.3 37.1317C622.388 36.4814 629.516 33.1332 645.955 21.9454C660.719 11.8968 667.381 8.38057 678.146 4.9261L677.993 4.45001L678.146 4.92609C700.689 -2.30964 723.72 -0.493697 744.962 10.1956C749.178 12.3174 759.047 18.3354 766.884 23.5698C782.779 34.1857 790.28 37.355 799.904 37.355C809.697 37.355 817.303 34.1184 833.768 23.1147C857.687 7.13125 871.022 1.87378 890.435 0.697093C912.378 -0.632719 931.068 5.84576 957.119 23.9119C970.813 33.4079 977.88 36.5581 987.084 37.149C992.744 37.5121 997.048 37.1523 1002.17 35.2187C1007.26 33.2951 1013.15 29.8201 1021.99 24.0047C1047.05 7.51252 1060.52 2.02112 1078.84 0.732782C1100.73 -0.804956 1119.06 5.16328 1143.84 21.9748L1144.12 21.561L1143.84 21.9748C1157.17 31.0192 1168.69 35.3057 1180.07 35.1356C1191.45 34.9655 1202.62 30.3418 1215.25 21.7342C1229.82 11.8086 1240.81 6.36329 1252.79 3.10853C1259.55 1.27256 1263.34 0.903136 1274.9 0.980998C1280.95 1.022 1284.72 1.1362 1287.93 1.52205C1291.13 1.90676 1293.77 2.56303 1297.56 3.70277C1319.82 10.4063 1334.15 21.5736 1353.19 47.1536C1360.31 56.7116 1365.85 62.9876 1371.41 67.1233C1377 71.273 1382.58 73.2514 1389.74 74.2651C1396.93 75.2838 1403.58 74.785 1423.98 71.7526C1462.02 66.0975 1495.34 79.6924 1514.89 108.774C1528.8 129.471 1532.12 150.412 1526.99 185.783C1524.9 200.167 1524.73 203.339 1525.71 210.119C1526.77 217.507 1528.76 223.142 1533.13 228.898C1537.48 234.632 1544.18 240.466 1554.62 248.293C1561.77 253.651 1570.98 261.557 1575.08 265.848C1602.01 294.067 1607.11 335.378 1587.85 369.253C1581.9 379.722 1570.13 391.852 1554.63 403.448C1544.39 411.101 1537.77 416.838 1533.41 422.455C1529.03 428.092 1526.94 433.588 1525.71 440.723C1524.63 447.03 1524.79 449.966 1526.96 465.667C1531.95 501.837 1528.88 521.834 1515.32 542.264C1495.54 572.069 1462.47 585.65 1423.48 579.909C1402.8 576.866 1396.93 576.426 1389.74 577.445C1382.66 578.448 1376.95 580.545 1371.28 584.753C1365.62 588.949 1360.03 595.229 1353.14 604.558C1334.42 629.932 1319.88 641.272 1297.56 648.016C1293.69 649.186 1291.09 649.841 1287.88 650.209C1284.66 650.579 1280.81 650.661 1274.4 650.668C1262.69 650.68 1258.48 650.276 1252.25 648.569C1240.98 645.482 1229.87 639.913 1215.18 629.957C1208.03 625.108 1199.23 619.729 1195.62 618.006C1185.82 613.328 1173 613.334 1163.19 617.984C1159.58 619.695 1151.02 624.858 1144.16 629.456C1122.02 644.301 1108.83 649.57 1090.53 650.951C1068.41 652.622 1050.61 646.796 1024.27 629.159C1017.71 624.768 1009.36 619.757 1005.71 618.024C987.054 609.189 969.855 619.247 954.569 629.477C941.955 637.92 932.602 643.21 923.627 646.396C914.663 649.577 906.05 650.667 894.904 650.667C883.708 650.667 879.382 650.238 873.035 648.523C861.868 645.506 849.278 639.162 834.284 628.968C821.454 620.246 810.712 615.914 799.925 615.953C789.14 615.992 778.398 620.4 765.567 628.964C752.557 637.648 743.006 643.067 733.907 646.32C724.819 649.569 716.155 650.667 704.904 650.667C693.766 650.667 685.278 649.625 676.472 646.519C667.657 643.409 658.496 638.219 646.025 629.88C632.985 621.16 622.025 616.497 610.964 616.274C599.898 616.05 588.818 620.27 575.539 629.127C559.56 639.785 554.25 642.664 544.03 646.245C533.208 650.038 520.438 651.795 509.44 651.005C492.018 649.755 478.887 644.676 458.521 631.248C444.49 621.997 433.087 616.919 421.647 616.545C410.197 616.17 398.8 620.508 384.783 629.88C372.238 638.269 363.106 643.451 354.262 646.543C345.428 649.631 336.852 650.645 325.404 650.652C318.976 650.656 315.128 650.582 311.917 650.216C308.718 649.852 306.139 649.197 302.252 648.02C291.051 644.631 282.145 640.349 273.609 633.693C265.065 627.031 256.871 617.975 247.113 605.006C239.918 595.445 234.153 589.015 228.456 584.729C222.743 580.431 217.114 578.301 210.218 577.303C203.365 576.311 201.096 576.486 179.334 579.558C154.185 583.108 135.439 580.855 118.331 572.281C95.6678 560.923 79.1809 540.269 72.8019 515.232C69.8449 503.626 69.6763 486.157 72.3921 470.44C73.4437 464.353 74.3192 454.445 74.3454 448.357C74.3663 443.205 74.3311 440.304 73.9064 437.9C73.4781 435.477 72.657 433.575 71.1644 430.418C66.8903 421.377 60.9318 415.228 44.7059 402.963C37.2893 397.357 28.2541 389.612 24.6334 385.766C-7.67534 351.447 -7.52782 299.834 24.9789 265.612C28.7637 261.628 37.7891 253.899 45.0271 248.449C60.7722 236.596 66.9274 230.278 70.9412 221.701C75.174 212.657 75.6872 203.251 73.0267 185.662C71.8954 178.176 70.6733 168.505 70.3126 164.176L69.8144 164.218L70.3126 164.176C68.7108 144.976 75.5879 121.067 87.1444 105.655C107.581 78.4012 139.311 66.3324 176.26 71.8226C197.094 74.9186 209.433 75.84 219.41 72.1501C229.404 68.4545 236.95 60.1645 248.317 45.1569C258.754 31.3768 268.735 20.989 276.685 15.5907Z" stroke="url(#paint0_linear_1151_21898)"/>
<defs>
<linearGradient id="paint0_linear_1151_21898" x1="360" y1="632.5" x2="1478" y2="113" gradientUnits="userSpaceOnUse">
<stop stop-color="#9EFF00"/>
<stop offset="0.332704" stop-color="#FF0F00"/>
<stop offset="0.588898" stop-color="#0000FF"/>
<stop offset="1" stop-color="#9EFF00"/>
</linearGradient>
</defs>
</svg>
